<svg width="140" height="160" viewBox="0 0 140 160" xmlns="http://www.w3.org/2000/svg">
  <defs>
    <!-- Farbverlauf für die Vase -->
    <radialGradient id="clayGradient" cx="50%" cy="50%" r="70%" fx="45%" fy="40%">
      <stop offset="0%" stop-color="#8b402a"/>
      <stop offset="70%" stop-color="#642c1a"/>
      <stop offset="100%" stop-color="#3a1a12"/>
    </radialGradient>

    <!-- Deko-Farbe -->
    <style>
      .deko { fill: #e2b292; }
      .line { stroke: #e2b292; stroke-width: 2; fill: none; }
    </style>

    <!-- Maske: Nur Vase sichtbar für Deko -->
    <mask id="vaseMask">
      <rect width="140" height="160" fill="black"/>
      <path d="
        M60 20
        C55 30, 40 55, 40 90
        C40 125, 100 125, 100 90
        C100 55, 85 30, 80 20
        Q70 10, 60 20
        Z
      " fill="white"/>
    </mask>
  </defs>

  <!-- Vase -->
  <path d="
    M60 20
    C55 30, 40 55, 40 90
    C40 125, 100 125, 100 90
    C100 55, 85 30, 80 20
    Q70 10, 60 20
    Z
  "
    fill="url(#clayGradient)"
    stroke="#2b140c"
    stroke-width="2"
  />

  <!-- Rand der Öffnung -->
  <ellipse cx="70" cy="20" rx="20" ry="6" fill="#4b2418" stroke="#2b140c" stroke-width="1"/>

  <!-- Dekoration (geclippt auf Vase) -->
  <g mask="url(#vaseMask)">
    <!-- Erste Wellenlinie -->
    <path d="M45 80 
             Q55 75, 65 80 
             Q75 85, 85 80 
             Q95 75, 105 80" 
          class="line"/>
    <!-- Erste Punktreihe -->
    <circle cx="50" cy="72" r="2" class="deko"/>
    <circle cx="60" cy="70" r="2" class="deko"/>
    <circle cx="70" cy="72" r="2" class="deko"/>
    <circle cx="80" cy="70" r="2" class="deko"/>
    <circle cx="90" cy="72" r="2" class="deko"/>
    <circle cx="100" cy="70" r="2" class="deko"/>

    <!-- Zweite Wellenlinie -->
    <path d="M45 95 
             Q55 90, 65 95 
             Q75 100, 85 95 
             Q95 90, 105 95" 
          class="line"/>
    <!-- Zweite Punktreihe -->
    <circle cx="50" cy="87" r="2" class="deko"/>
    <circle cx="60" cy="85" r="2" class="deko"/>
    <circle cx="70" cy="87" r="2" class="deko"/>
    <circle cx="80" cy="85" r="2" class="deko"/>
    <circle cx="90" cy="87" r="2" class="deko"/>
    <circle cx="100" cy="85" r="2" class="deko"/>
  </g>
</svg>
